# xmcd
#
# Track frame offsets:
#	150
#	24397
#	46307
#	59315
#	70680
#	89785
#	113170
#	129197
#	142692
#	162435
#	180545
#	206002
#	223337
#	247722
#	267430
#
# Disc length: 3828 seconds
#
# Revision: 1
# Processed by: cddbd v1.4PL0 Copyright (c) Steve Scherf et al.
# Submitted via: audiograbber 1.80.04
#
DISCID=d30ef20f
DTITLE=Compilation - Blues Story #28
DYEAR=1998
DGENRE=Blues
TTITLE0=Popa Chubby - Rats Get Whacked
TTITLE1=Lucky Peterson - Time (Mix 1) w/Bootsy Collins
TTITLE2=Kim Lembo - In The Dark
TTITLE3=Colin Linden - Reason Of The Rythme
TTITLE4=Van Wilks - Memphis Turnaround
TTITLE5=Michael Hiil's Blues Mob - Hard Blues For Hard Time
TTITLE6=Rainer and Das Combo - Power Of Delight
TTITLE7=Big Bill Morganfield - Diamonds At Your Feet
TTITLE8=Neal Black - Lost On A Blue HighWay
TTITLE9=Preacher Boy - The Cross Must Move
TTITLE10=The Hoax - Superstition
TTITLE11=Deborah Coleman - Nobody To Blame
TTITLE12=Tinsley Ellis - Cut You Loose
TTITLE13=Tommy Castro - Right As Rain
TTITLE14=William Clarke - Pawnshop Bound
EXTD=
EXTT0=
EXTT1=
EXTT2=
EXTT3=
EXTT4=
EXTT5=
EXTT6=
EXTT7=
EXTT8=
EXTT9=
EXTT10=
EXTT11=
EXTT12=
EXTT13=
EXTT14=
PLAYORDER=
